<svg xmlns="http://www.w3.org/2000/svg" width="489" height="401" viewBox="0 0 489 401" version="1.1"><path d="M 243 4.958 C 241.625 5.391, 229.700 10.761, 216.500 16.892 C 203.300 23.023, 184.979 31.518, 175.787 35.770 C 166.594 40.021, 159.057 43.819, 159.037 44.208 C 158.992 45.071, 170.335 40.016, 196.786 27.388 C 202.993 24.425, 208.261 22, 208.492 22 C 208.722 22, 214.444 19.359, 221.206 16.130 C 240.190 7.066, 242.949 5.999, 247.377 6.009 C 251.860 6.019, 261.507 10.112, 260.266 11.478 C 259.845 11.941, 260.010 12.030, 260.633 11.674 C 261.886 10.958, 281.066 19.565, 282.235 21.367 C 282.639 21.990, 282.976 22.188, 282.985 21.807 C 283.004 20.921, 295.852 26.739, 327.781 42.094 C 334.536 45.342, 340.275 48, 340.534 48 C 340.793 48, 347.416 51.105, 355.252 54.899 C 377.893 65.863, 389.455 71.350, 390.081 71.428 C 392.476 71.726, 400.801 76.512, 400.309 77.309 C 399.969 77.859, 400.170 78.013, 400.755 77.651 C 402.264 76.719, 405.119 77.999, 404.340 79.259 C 403.967 79.862, 404.170 80.013, 404.816 79.614 C 406.109 78.815, 416 82.802, 416 84.123 C 416 84.605, 416.337 84.916, 416.750 84.814 C 417.163 84.712, 419.242 85.387, 421.372 86.314 C 423.502 87.241, 425.527 88.002, 425.872 88.004 C 426.217 88.006, 428.075 88.991, 430 90.193 C 431.925 91.395, 433.950 92.467, 434.500 92.575 C 435.050 92.683, 438.130 93.981, 441.344 95.458 C 444.559 96.936, 447.369 97.964, 447.590 97.743 C 448.084 97.250, 430.216 88.646, 380 65.195 C 358.825 55.307, 334.353 43.793, 325.617 39.608 C 316.881 35.424, 309.584 32, 309.400 32 C 309.038 32, 295.349 25.522, 274 15.249 C 248.930 3.185, 248.788 3.138, 243 4.958 M 141.500 51.626 C 132.700 55.763, 115.825 63.578, 104 68.992 C 92.175 74.406, 78 80.950, 72.500 83.535 C 67 86.120, 51.048 93.589, 37.051 100.133 C 23.054 106.677, 10.566 112.710, 9.301 113.539 C 7.993 114.395, 7 116.048, 7 117.368 C 7 121.182, 6.927 121.139, 36.547 135.053 C 47.097 140.009, 46.454 137.608, 46.813 173.353 C 47.225 214.364, 47.345 213.526, 40.032 220.748 C 35.490 225.233, 33.854 227.696, 32.604 231.932 C 30.712 238.339, 30.644 240.244, 32.074 246.910 C 33.105 251.719, 36.637 257.696, 37.775 256.559 C 38.075 256.258, 37.591 255.206, 36.699 254.220 C 35.806 253.234, 34.434 249.674, 33.649 246.310 C 31.269 236.106, 34.110 227.365, 42.123 220.238 C 48.034 214.980, 48 215.229, 48 177.454 C 48 147.149, 47.795 142.461, 46.361 140.034 C 44.751 137.309, 39.209 134.337, 20 125.899 C 9.765 121.403, 8 120.161, 8 117.458 C 8 115.622, 9.185 114.590, 13.750 112.449 C 16.913 110.966, 24 107.618, 29.500 105.009 C 65.418 87.970, 87.281 78.036, 88.656 78.129 C 88.997 78.152, 89.552 77.777, 89.888 77.296 C 90.225 76.815, 93.425 75.143, 97 73.581 C 103.925 70.555, 109.529 67.965, 125.500 60.411 C 131 57.810, 135.725 55.634, 136 55.575 C 136.275 55.517, 136.971 55.169, 137.547 54.801 C 140.677 52.803, 157.384 46.119, 158.116 46.572 C 158.589 46.864, 158.709 46.406, 158.382 45.552 C 158.054 44.698, 157.722 44.023, 157.643 44.052 C 157.564 44.080, 150.300 47.488, 141.500 51.626 M 228 60.535 C 230.959 61.452, 239.520 67.256, 253 77.482 C 264.275 86.035, 279.462 97.529, 286.750 103.025 C 294.038 108.520, 300 113.687, 300 114.508 C 300 115.329, 300.435 116, 300.968 116 C 302.857 116, 300.284 111.489, 297.190 109.377 C 295.480 108.209, 294.400 106.934, 294.790 106.543 C 295.181 106.153, 295.039 105.983, 294.475 106.167 C 292.789 106.715, 282.840 99.067, 283.613 97.817 C 283.996 97.198, 283.865 96.965, 283.322 97.301 C 282.423 97.857, 276.073 94.162, 273.402 91.529 C 272.798 90.934, 270.007 88.695, 267.198 86.553 C 264.390 84.412, 262.366 82.217, 262.701 81.675 C 263.035 81.134, 262.852 80.973, 262.294 81.319 C 261.015 82.109, 246.868 71.493, 247.808 70.448 C 248.189 70.025, 248.019 69.952, 247.432 70.286 C 246.845 70.620, 245.177 69.792, 243.726 68.446 C 242.275 67.101, 240.838 66, 240.533 66 C 240.229 66, 237.739 64.425, 235 62.500 C 231.656 60.149, 228.950 59.023, 226.760 59.070 C 223.622 59.137, 223.669 59.192, 228 60.535 M 217.545 62.545 C 212.768 67.323, 215.530 76.132, 223.137 80.376 C 226.194 82.082, 226.075 81.853, 221.827 77.856 C 219.256 75.437, 216.857 72.279, 216.495 70.837 C 215.672 67.556, 218.277 62.230, 221.302 61.012 C 222.951 60.348, 223.074 60.111, 221.795 60.063 C 220.858 60.029, 218.945 61.145, 217.545 62.545 M 231 85.979 C 232.925 87.717, 235.400 89.613, 236.500 90.192 C 239.155 91.589, 237.511 90.090, 232 86.088 L 227.500 82.819 231 85.979 M 239.333 92.523 C 239.333 93.287, 239.631 93.728, 239.996 93.503 C 240.360 93.278, 242.310 94.455, 244.329 96.120 C 246.348 97.784, 248 98.684, 248 98.121 C 248 97.557, 246.050 95.754, 243.667 94.115 C 240.732 92.096, 239.333 91.582, 239.333 92.523 M 249.872 100.250 C 250.627 101.213, 251.865 102, 252.622 102 C 253.380 102, 254 102.450, 254 103 C 254 103.550, 254.520 104, 255.155 104 C 255.809 104, 255.522 103.129, 254.494 101.994 C 253.496 100.890, 252.455 100.212, 252.181 100.485 C 251.908 100.759, 250.968 100.424, 250.092 99.741 C 248.683 98.643, 248.658 98.702, 249.872 100.250 M 451 99.905 C 451 100.735, 455.102 102.231, 455.711 101.623 C 455.874 101.459, 454.882 100.811, 453.504 100.184 C 452.127 99.556, 451 99.431, 451 99.905 M 457 102.453 C 457 102.964, 465.911 107.025, 466.877 106.955 C 467.668 106.897, 458.760 102.106, 457.750 102.045 C 457.337 102.020, 457 102.204, 457 102.453 M 258 105.909 C 258.825 106.492, 259.072 106.976, 258.550 106.985 C 258.028 106.993, 258.140 107.540, 258.800 108.200 C 260.293 109.693, 260.342 113.156, 258.915 116.288 C 257.616 119.138, 252.463 122.404, 250.843 121.403 C 250.160 120.981, 249.962 121.129, 250.356 121.767 C 250.750 122.404, 248.673 123.963, 245.260 125.590 C 242.092 127.101, 238.451 129.274, 237.169 130.419 C 235.888 131.563, 234.645 132.380, 234.409 132.234 C 234.172 132.088, 232.878 132.689, 231.533 133.570 C 230.188 134.451, 228.549 134.839, 227.889 134.432 C 227.165 133.984, 226.953 134.114, 227.352 134.760 C 227.715 135.348, 226.474 136.780, 224.595 137.941 C 222.682 139.123, 220.695 141.435, 220.084 143.189 C 218.565 147.546, 219.562 147.984, 221.336 143.739 C 222.462 141.044, 224.667 139.143, 231.144 135.282 C 239.225 130.466, 248.327 125.248, 254.468 121.910 C 256.100 121.023, 258.313 119.122, 259.384 117.687 C 261.580 114.747, 261.979 109.223, 260.081 108.050 C 259.393 107.625, 258.901 106.888, 258.990 106.413 C 259.078 105.938, 258.554 105.392, 257.825 105.199 C 256.947 104.966, 257.007 105.206, 258 105.909 M 468 107.568 C 468 107.820, 470.436 109.179, 473.414 110.589 C 476.392 111.999, 479.604 114.010, 480.552 115.058 C 483.058 117.826, 481.317 119.429, 470.015 124.756 C 454.037 132.289, 447.113 135.584, 431.500 143.089 C 423.250 147.054, 414.250 151.286, 411.500 152.494 C 399.794 157.633, 388 163.467, 388 164.117 C 388 164.503, 389.688 164.019, 391.750 163.041 C 393.813 162.063, 397.300 160.454, 399.500 159.464 C 401.700 158.474, 404.288 156.995, 405.250 156.177 C 406.212 155.359, 407 154.963, 407 155.297 C 407 155.898, 415.885 151.844, 440 140.240 C 457.627 131.758, 471.193 125.403, 477.025 122.894 C 482.869 120.380, 484.505 117.032, 481.381 113.981 C 479.548 112.190, 468 106.656, 468 107.568 M 296 120.360 C 293.525 122.129, 288.125 125.095, 284 126.951 C 267.418 134.413, 255.075 140.530, 245.535 146.015 C 240.016 149.189, 233.925 152.210, 232 152.729 C 227.592 153.917, 223.065 152.724, 220.796 149.776 C 219.833 148.524, 219.034 148.045, 219.022 148.711 C 218.983 150.853, 223.120 153.845, 227.039 154.507 C 229.977 155.003, 232.053 154.574, 236.111 152.632 C 239.006 151.246, 241.809 150.382, 242.341 150.711 C 242.874 151.040, 243.038 150.870, 242.706 150.333 C 241.830 148.915, 267.199 135.441, 284.754 127.999 C 289.294 126.075, 294.201 123.487, 295.659 122.250 C 297.118 121.013, 298.643 120, 299.049 120 C 299.454 120, 300.045 119.325, 300.362 118.500 C 300.678 117.675, 300.839 117.032, 300.719 117.072 C 300.598 117.112, 298.475 118.592, 296 120.360 M 64.397 145.450 C 62.618 146.750, 62.481 148.735, 62.196 177.362 C 61.862 210.997, 62.329 215.073, 66.787 217.408 C 71.115 219.675, 75.719 225.159, 77.023 229.598 C 78.836 235.776, 77.970 249.270, 75.592 251.898 C 74.546 253.054, 74.097 254.002, 74.595 254.005 C 75.093 254.007, 73.845 255.529, 71.823 257.387 C 68.269 260.651, 68.201 260.843, 69.767 263.132 C 70.659 264.434, 72.147 266.181, 73.074 267.013 C 76.230 269.846, 78 277.500, 78 288.312 C 78 295.964, 77.606 299.117, 76.443 300.777 C 74.875 303.017, 72.267 303.995, 73.595 301.845 C 74.041 301.124, 73.869 300.963, 73.138 301.415 C 72.494 301.813, 72.226 302.557, 72.543 303.069 C 72.890 303.632, 65.251 304, 53.233 304 C 33.495 304, 33.332 303.982, 31.077 301.582 C 29.254 299.641, 28.940 298.506, 29.488 295.832 C 31.098 287.970, 36.326 273.308, 38.854 269.561 C 42.788 263.732, 43.137 262.351, 41.200 260.278 C 40.265 259.277, 39.837 258.895, 40.250 259.429 C 41.628 261.213, 41.025 263.570, 37.949 268.420 C 34.593 273.711, 28.002 292.857, 28.001 297.316 C 27.999 304.707, 31.694 305.989, 53 305.989 C 71.240 305.989, 75.308 305.131, 78.128 300.689 C 79.958 297.806, 80.096 296.414, 79.569 286.201 C 78.938 273.977, 77.896 270.639, 72.888 264.787 L 69.710 261.074 72.706 258.274 C 78.085 253.250, 79.442 249.465, 79.438 239.500 C 79.435 229.256, 77.431 223.996, 71.955 219.853 C 70.245 218.559, 67.756 216.508, 66.423 215.295 L 64 213.091 64 180.014 C 64 152.637, 64.240 146.845, 65.395 146.402 C 66.163 146.107, 74.375 149.556, 83.645 154.065 C 111.502 167.615, 123.282 173.051, 123.757 172.576 C 124.005 172.328, 120.674 170.465, 116.354 168.435 C 110.605 165.734, 73.730 147.788, 66.897 144.366 C 66.566 144.200, 65.441 144.688, 64.397 145.450 M 382.441 166.468 C 381.374 167.276, 380.950 167.936, 381.500 167.936 C 382.050 167.936, 383.374 167.276, 384.441 166.468 C 385.509 165.661, 385.932 165, 385.382 165 C 384.832 165, 383.509 165.661, 382.441 166.468 M 362 176.164 C 352.925 180.592, 344.983 184.299, 344.351 184.401 C 343.719 184.504, 342.594 185.067, 341.851 185.654 C 341.108 186.240, 332.739 190.496, 323.254 195.110 C 313.769 199.725, 306.006 203.835, 306.004 204.245 C 306.002 204.655, 311.512 202.260, 318.250 198.924 C 324.988 195.588, 341.750 187.294, 355.500 180.494 C 369.250 173.693, 380.050 168.125, 379.500 168.121 C 378.950 168.116, 371.075 171.736, 362 176.164 M 125 173.518 C 125 173.803, 129.162 176.001, 134.250 178.404 C 139.338 180.806, 152.500 187.146, 163.500 192.492 C 230.412 225.013, 238.039 228.585, 243.388 229.898 C 246.076 230.558, 249.676 230.797, 251.388 230.429 C 254.946 229.664, 305 205.464, 305 204.509 C 305 204.164, 304.663 204.063, 304.250 204.285 C 300.401 206.351, 256.981 227.437, 255.112 228.148 C 249.690 230.209, 236.098 228.269, 237.708 225.664 C 238.044 225.121, 237.791 225.011, 237.136 225.416 C 236.491 225.814, 231.750 224.131, 226.601 221.675 C 221.451 219.220, 216.284 216.908, 215.119 216.538 C 213.953 216.168, 213 215.446, 213 214.933 C 213 214.420, 212.662 214.077, 212.250 214.170 C 211.838 214.264, 207.141 212.279, 201.814 209.758 C 196.487 207.238, 191.193 204.879, 190.049 204.516 C 188.901 204.151, 188.270 203.372, 188.640 202.773 C 189.008 202.178, 188.865 201.966, 188.322 202.301 C 187.779 202.637, 177.472 198.056, 165.417 192.122 C 153.363 186.188, 140.125 179.809, 136 177.945 C 131.875 176.082, 128.275 174.320, 128 174.029 C 127.296 173.285, 125 172.893, 125 173.518 M 116.075 189.306 C 114.191 189.963, 112.438 191.175, 112.179 192 C 111.814 193.162, 112.161 193.098, 113.720 191.716 C 114.974 190.605, 117.441 189.898, 120.264 189.841 C 124.041 189.766, 127.774 191.215, 142.648 198.532 C 152.467 203.362, 160.950 207.417, 161.500 207.543 C 164.632 208.259, 192.737 222.942, 192.175 223.568 C 191.804 223.982, 192.064 223.996, 192.754 223.599 C 194.102 222.823, 202 226.790, 202 228.243 C 202 228.724, 202.450 228.840, 203.001 228.499 C 203.552 228.159, 207.398 229.660, 211.549 231.835 C 215.700 234.011, 218.957 235.370, 218.786 234.857 C 218.313 233.440, 134.708 192.572, 125.986 189.495 C 121.024 187.744, 120.582 187.736, 116.075 189.306 M 368.789 189.458 C 366.748 190.234, 341.801 202.395, 313.351 216.482 C 284.900 230.570, 258.996 242.827, 255.784 243.720 C 248.164 245.838, 241.245 244.617, 229.387 239.060 C 224.601 236.817, 220.489 235.178, 220.249 235.417 C 219.888 235.779, 225.357 239.123, 227 239.544 C 227.806 239.751, 231.173 241.128, 236 243.223 C 242.489 246.041, 250.521 246.572, 257.213 244.627 C 260.276 243.736, 267.893 240.478, 274.141 237.386 C 376.040 186.956, 369.912 189.808, 375.611 190.167 C 378.523 190.350, 380.551 190.146, 380.117 189.714 C 378.597 188.200, 372.467 188.061, 368.789 189.458 M 108.725 195.750 C 106.863 199.929, 106.983 266.405, 108.855 268.200 C 109.990 269.288, 110.091 268.936, 109.480 266.040 C 108.366 260.770, 108.777 198.717, 109.946 195.643 C 111.274 192.148, 110.292 192.234, 108.725 195.750 M 386.120 233.244 C 385.976 252.195, 385.454 267.152, 384.899 268.188 C 384.267 269.369, 384.274 270, 384.918 270 C 387.280 270, 387.989 261.200, 387.994 231.809 C 387.997 214.929, 387.634 200.892, 387.186 200.615 C 386.738 200.338, 386.259 215.021, 386.120 233.244 M 119.500 275 C 119.840 275.550, 121.415 276, 123 276 C 124.585 276, 126.160 275.550, 126.500 275 C 126.874 274.395, 125.491 274, 123 274 C 120.509 274, 119.126 274.395, 119.500 275 M 348 275.013 C 344.125 275.626, 344.493 275.709, 350.648 275.613 C 354.580 275.551, 357.280 275.169, 356.648 274.765 C 355.378 273.953, 354.548 273.976, 348 275.013 M 360.121 274.454 C 360.903 275.236, 367.894 275.440, 368.631 274.702 C 369.017 274.316, 367.158 274, 364.500 274 C 361.842 274, 359.871 274.204, 360.121 274.454 M 145.264 275.718 C 146.784 275.947, 149.034 275.941, 150.264 275.704 C 151.494 275.467, 150.250 275.279, 147.500 275.286 C 144.750 275.294, 143.744 275.488, 145.264 275.718 M 334 277 C 331.673 277.745, 331.651 277.808, 333.691 277.900 C 334.896 277.955, 336.160 277.550, 336.500 277 C 336.840 276.450, 336.979 276.045, 336.809 276.100 C 336.639 276.155, 335.375 276.560, 334 277 M 164.500 279 C 165.600 279.473, 167.175 279.859, 168 279.859 C 168.945 279.859, 168.761 279.542, 167.500 279 C 166.400 278.527, 164.825 278.141, 164 278.141 C 163.055 278.141, 163.239 278.458, 164.500 279 M 326.500 279 C 325.239 279.542, 325.055 279.859, 326 279.859 C 326.825 279.859, 328.400 279.473, 329.500 279 C 330.761 278.458, 330.945 278.141, 330 278.141 C 329.175 278.141, 327.600 278.527, 326.500 279 M 319.589 280.856 C 319.298 281.326, 320.172 281.499, 321.530 281.239 C 322.889 280.979, 324 280.594, 324 280.383 C 324 279.610, 320.101 280.027, 319.589 280.856 M 173 281.385 C 173 281.597, 175.328 282.531, 178.173 283.462 C 186.472 286.176, 200.478 293.594, 215 302.966 C 222.425 307.758, 229.625 312.225, 231 312.894 C 233.404 314.064, 233.424 314.048, 231.500 312.485 C 230.400 311.590, 229.624 310.407, 229.775 309.855 C 229.926 309.303, 229.629 309.111, 229.115 309.429 C 227.703 310.301, 224.919 308.941, 225.660 307.741 C 226.017 307.163, 225.843 306.979, 225.273 307.331 C 224.703 307.683, 222.496 306.776, 220.369 305.315 C 218.241 303.853, 214.475 301.296, 212 299.631 C 209.525 297.966, 207.275 296.333, 207 296.003 C 206.218 295.065, 183.992 284.308, 179.230 282.564 C 175.007 281.018, 173 280.638, 173 281.385 M 314 282.736 C 313.175 283.053, 308.675 285.134, 304 287.360 C 299.325 289.586, 295.268 291.428, 294.985 291.453 C 294.038 291.539, 278.514 301.389, 277.500 302.547 C 275.604 304.714, 270.273 307.939, 269.637 307.304 C 269.287 306.953, 269 307.132, 269 307.700 C 269 309.286, 261.008 314.217, 259.423 313.609 C 258.654 313.314, 258.131 313.596, 258.262 314.237 C 258.552 315.657, 252.658 317.866, 248.376 317.944 C 246.657 317.975, 243.325 317.320, 240.970 316.489 C 235.189 314.450, 234.708 315.341, 240.413 317.520 C 247.419 320.195, 254.484 319.213, 262.202 314.489 C 265.666 312.370, 268.725 310.343, 269 309.986 C 270.854 307.578, 294.769 293.020, 304.364 288.459 C 310.764 285.417, 316 282.719, 316 282.464 C 316 282.209, 315.887 282.036, 315.750 282.079 C 315.613 282.122, 314.825 282.418, 314 282.736 M 110.389 310.488 C 107.028 311.220, 102.528 312.718, 100.389 313.817 C 95.531 316.315, 90.420 321.523, 91.918 322.449 C 92.513 322.817, 93 322.641, 93 322.059 C 93 320.620, 96.688 317.022, 97.417 317.750 C 97.737 318.071, 98 317.829, 98 317.214 C 98 315.895, 103.044 313.464, 108 312.393 C 109.925 311.977, 112.175 311.442, 113 311.204 C 113.825 310.966, 120.640 310.556, 128.144 310.292 C 149.018 309.557, 169.569 313.256, 185.756 320.660 C 188.744 322.027, 191.377 322.957, 191.607 322.726 C 192.434 321.899, 178.319 316.079, 169.500 313.610 C 164.550 312.225, 156.980 310.621, 152.678 310.046 C 141.982 308.616, 117.834 308.869, 110.389 310.488 M 341.500 310.922 C 326.668 313.698, 305.677 321.477, 303.496 325.007 C 303.138 325.586, 305.445 324.653, 308.622 322.934 C 311.800 321.215, 315.097 319.657, 315.950 319.473 C 316.802 319.288, 320.650 318.012, 324.500 316.637 C 336.621 312.306, 347.161 310.694, 364 310.593 C 372.525 310.542, 380.850 310.788, 382.500 311.140 C 388.455 312.411, 396.375 315.984, 399.289 318.714 C 400.925 320.246, 402.055 320.825, 401.801 320 C 401.112 317.760, 394.171 313.291, 388.500 311.436 C 380.552 308.836, 354.189 308.548, 341.500 310.922 M 403.022 322.240 C 403.010 322.647, 405.025 326.139, 407.500 330 C 409.975 333.861, 412 337.313, 412 337.670 C 412 338.027, 414.775 342.371, 418.167 347.323 C 421.558 352.275, 424.333 356.928, 424.333 357.663 C 424.333 358.398, 424.557 358.776, 424.830 358.503 C 425.560 357.773, 431 364.128, 431 365.711 C 431 368.836, 428.285 368.582, 408.229 363.578 C 398.507 361.152, 389.974 360.486, 371 360.669 C 352.594 360.847, 346.426 361.502, 331.130 364.903 C 312.491 369.048, 296.391 374.898, 277 384.573 C 259.634 393.238, 253.336 395.443, 247.995 394.726 C 242.177 393.946, 230.186 389.104, 228.654 386.917 C 227.921 385.869, 227.023 385.311, 226.659 385.675 C 226.295 386.039, 224.985 385.857, 223.748 385.270 C 222.512 384.684, 219.925 383.526, 218 382.697 C 216.075 381.869, 212.700 380.412, 210.500 379.461 C 198.341 374.202, 182.041 369.001, 163.500 364.462 C 156.026 362.632, 139.303 360.825, 127 360.518 C 113.245 360.174, 88.583 362.047, 87.153 363.544 C 86.794 363.920, 88.525 363.953, 91 363.619 C 101.504 362.198, 133.968 361.785, 144.079 362.943 C 171.068 366.035, 192.313 372.575, 227.592 388.652 C 240.667 394.609, 243.361 395.487, 249.500 395.788 C 256.472 396.130, 256.562 396.101, 271.797 388.541 C 312.200 368.495, 337.553 361.984, 375 362.039 C 393.448 362.066, 401.040 362.953, 417.209 366.971 C 428.356 369.741, 429.498 369.859, 431.110 368.401 C 433.308 366.411, 432.803 365.049, 427.063 357.490 C 421.705 350.434, 414.584 339.746, 410.068 331.982 C 406.522 325.885, 403.057 321.094, 403.022 322.240 M 83.571 334.104 C 79.814 340.455, 77.307 345.707, 77.798 346.198 C 78.289 346.689, 78.667 346.507, 78.667 345.777 C 78.667 345.068, 79.949 342.466, 81.517 339.994 C 86.392 332.307, 91.070 323.737, 90.632 323.298 C 90.401 323.068, 87.224 327.930, 83.571 334.104 M 193 323.965 C 193 324.534, 193.563 325.001, 194.250 325.002 C 197.331 325.007, 218.452 340.459, 217.495 342.007 C 217.205 342.477, 217.494 343.187, 218.138 343.585 C 218.869 344.037, 219.041 343.876, 218.595 343.155 C 217.399 341.219, 219.571 341.869, 221.529 344.032 C 222.541 345.150, 224.863 346.988, 226.690 348.118 C 228.518 349.247, 229.715 350.652, 229.352 351.240 C 228.969 351.859, 229.161 352.018, 229.808 351.618 C 230.752 351.035, 238.430 355.014, 240 356.899 C 240.549 357.559, 241.879 357.920, 246.694 358.716 C 251.634 359.532, 256.129 358.299, 262.582 354.357 C 265.837 352.369, 269.043 350.725, 269.706 350.704 C 270.369 350.684, 270.717 350.350, 270.478 349.964 C 270.239 349.577, 272.723 347.156, 275.998 344.583 C 279.273 342.010, 282.638 339.219, 283.476 338.381 C 284.314 337.543, 285.007 337.227, 285.015 337.679 C 285.024 338.130, 285.389 337.935, 285.827 337.246 C 286.265 336.556, 288.146 334.868, 290.006 333.496 C 291.866 332.123, 292.868 331, 292.232 331 C 291.595 331, 286.445 334.748, 280.787 339.329 C 255.335 359.935, 249.434 361.600, 235 352.245 C 231.975 350.284, 225.407 345.419, 220.405 341.433 C 207.541 331.182, 193 321.914, 193 323.965 M 298.878 326.599 C 297.436 327.362, 295.665 328.698, 294.943 329.569 C 294.056 330.637, 294.816 330.451, 297.282 328.996 C 299.291 327.811, 301.394 327.125, 301.956 327.473 C 302.559 327.846, 302.734 327.469, 302.382 326.552 C 302.054 325.698, 301.722 325.048, 301.643 325.106 C 301.564 325.164, 300.320 325.836, 298.878 326.599 M 70.500 354.222 C 64.112 363.367, 63.737 364, 64.700 363.998 C 65.140 363.997, 66.737 362.039, 68.248 359.646 C 69.760 357.253, 72.218 353.992, 73.711 352.398 C 76.328 349.604, 77.532 346.966, 76.162 347.032 C 75.798 347.049, 73.250 350.285, 70.500 354.222 M 78 365.585 C 70.319 368.061, 66.467 368.325, 64.641 366.498 C 63.157 365.014, 63 365.010, 63 366.453 C 63 369.723, 67.451 370.058, 76.209 367.448 C 86.363 364.423, 87.020 364.161, 84.500 364.146 C 83.400 364.139, 80.475 364.787, 78 365.585" stroke="none" fill="#f8fbf8" fill-rule="evenodd"/><path d="M 239.667 7.615 C 238.109 8.460, 236.173 8.897, 235.365 8.587 C 234.557 8.277, 234.151 8.435, 234.463 8.939 C 235.197 10.128, 231.373 11.349, 229.854 10.410 C 229.146 9.972, 228.960 10.126, 229.378 10.803 C 230.224 12.172, 224.390 15.364, 222.422 14.608 C 221.653 14.313, 221.131 14.502, 221.262 15.027 C 221.582 16.312, 197.933 27.188, 196.235 26.537 C 195.499 26.254, 195.161 26.451, 195.485 26.975 C 196.254 28.220, 183.231 34.303, 181.345 33.579 C 180.459 33.239, 180.159 33.449, 180.573 34.119 C 181.030 34.858, 180.478 34.995, 178.875 34.542 C 177.108 34.041, 176.875 34.127, 177.966 34.877 C 179.176 35.709, 179.001 36.054, 176.966 36.853 C 175.610 37.386, 171.042 39.412, 166.815 41.356 C 161.409 43.842, 158.959 44.536, 158.554 43.695 C 158.237 43.038, 158.166 43.513, 158.396 44.751 C 158.625 45.990, 158.448 46.777, 158.001 46.501 C 157.555 46.225, 154.141 47.366, 150.416 49.038 C 146.690 50.709, 143.025 51.840, 142.269 51.550 C 141.411 51.220, 141.164 51.457, 141.612 52.181 C 142.107 52.982, 141.746 53.117, 140.445 52.617 C 139.409 52.220, 138.878 52.211, 139.265 52.598 C 139.652 52.985, 139.190 53.872, 138.237 54.568 C 136.910 55.539, 136.168 55.562, 135.061 54.667 C 133.932 53.755, 133.785 53.780, 134.387 54.782 C 135.313 56.322, 116.616 65.451, 114.331 64.574 C 113.542 64.271, 113.160 64.450, 113.482 64.971 C 113.804 65.492, 112.140 66.790, 109.784 67.853 C 107.428 68.917, 102.371 71.199, 98.547 72.923 C 94.723 74.648, 91.034 75.843, 90.348 75.580 C 89.535 75.268, 89.309 75.692, 89.698 76.801 C 90.184 78.186, 90.045 78.269, 88.947 77.250 C 88.206 76.563, 87.127 76.007, 86.550 76.015 C 85.972 76.024, 86.149 76.441, 86.942 76.943 C 88.026 77.629, 86.922 78.502, 82.496 80.459 C 79.257 81.892, 76.026 82.840, 75.316 82.568 C 74.605 82.295, 74.131 82.618, 74.262 83.286 C 74.413 84.058, 73.407 84.420, 71.500 84.281 C 69.703 84.150, 69.009 84.379, 69.768 84.852 C 70.622 85.383, 69.428 86.395, 66.121 87.943 C 63.324 89.253, 60.664 89.910, 59.949 89.468 C 59.075 88.928, 58.941 89.095, 59.510 90.015 C 60.109 90.985, 59.868 91.164, 58.612 90.681 C 57.456 90.238, 57.130 90.401, 57.612 91.181 C 58.095 91.962, 57.769 92.125, 56.612 91.681 C 55.668 91.319, 55.124 91.391, 55.402 91.841 C 56.175 93.092, 42.458 99.401, 40.967 98.480 C 40.078 97.930, 39.937 98.089, 40.502 99.003 C 41.106 99.980, 40.762 100.171, 39.155 99.751 C 37.968 99.440, 37.238 99.575, 37.531 100.051 C 38.274 101.253, 32.147 104.270, 30.358 103.584 C 29.554 103.275, 29.131 103.402, 29.417 103.866 C 30.141 105.037, 15.082 112.246, 13.324 111.571 C 12.418 111.223, 12.158 111.446, 12.612 112.181 C 13.095 112.962, 12.769 113.125, 11.612 112.681 C 10.655 112.314, 10.149 112.433, 10.469 112.950 C 10.784 113.460, 10.423 114.242, 9.667 114.689 C 7.548 115.939, 7.014 120.772, 8.832 122.244 C 10.105 123.274, 10.235 123.252, 9.553 122.120 C 8.975 121.161, 9.145 120.894, 10.111 121.245 C 10.875 121.523, 11.376 122.290, 11.225 122.949 C 11.074 123.609, 11.451 123.839, 12.062 123.462 C 13.454 122.602, 21.136 125.971, 20.421 127.128 C 20.132 127.595, 20.525 127.736, 21.294 127.441 C 22.064 127.145, 27.651 129.236, 33.710 132.086 C 41.532 135.766, 45.202 138.072, 46.364 140.039 C 47.794 142.460, 48 147.173, 48 177.470 C 48 213.321, 47.917 214.121, 43.701 218.750 C 41.294 221.392, 39.142 221.804, 41.089 219.250 C 41.823 218.287, 40.978 218.822, 39.212 220.437 C 37.445 222.052, 36 223.585, 36 223.842 C 36 224.099, 36.900 223.495, 38 222.500 C 40.835 219.935, 40.481 221.255, 37.003 226.221 C 32.917 232.056, 31.835 238.533, 33.649 246.310 C 34.434 249.674, 35.734 253.154, 36.538 254.042 C 38.327 256.019, 38.454 257.398, 36.750 256.347 C 36.063 255.923, 36.625 256.962, 38 258.656 C 40.409 261.624, 42.222 262.436, 40.393 259.727 C 39.902 259, 40.265 259.236, 41.200 260.252 C 42.858 262.052, 42.704 264.188, 40.731 266.739 C 40.205 267.420, 39.305 267.688, 38.732 267.334 C 38.128 266.961, 37.990 267.175, 38.403 267.843 C 39.241 269.199, 36.007 275.123, 34.828 274.394 C 34.385 274.120, 34.285 274.579, 34.605 275.413 C 34.925 276.248, 34.052 280.434, 32.663 284.715 C 28.607 297.225, 28.460 298.796, 31.077 301.582 C 33.332 303.982, 33.495 304, 53.233 304 C 65.251 304, 72.890 303.632, 72.543 303.069 C 72.226 302.557, 72.494 301.813, 73.138 301.415 C 73.869 300.963, 74.041 301.124, 73.595 301.845 C 72.267 303.995, 74.875 303.017, 76.443 300.777 C 78.521 297.811, 78.540 279.243, 76.471 273.500 C 74.693 268.565, 74.653 267.682, 76.250 268.602 C 76.938 268.998, 76.409 268.125, 75.076 266.661 C 72.628 263.975, 71.361 263.157, 72.500 265 C 72.840 265.550, 72.738 266, 72.275 266 C 71.811 266, 70.662 264.697, 69.721 263.105 C 68.267 260.644, 68.227 260.127, 69.455 259.656 C 70.465 259.268, 70.735 259.612, 70.355 260.801 C 69.920 262.161, 70.011 262.219, 70.813 261.091 C 71.364 260.316, 71.606 259.136, 71.350 258.470 C 70.950 257.429, 73.021 255.864, 75.167 255.586 C 75.533 255.539, 76.208 255.125, 76.667 254.667 C 77.125 254.208, 77.050 253.924, 76.500 254.035 C 74.099 254.519, 73.819 253.858, 75.595 251.897 C 77.191 250.135, 77.500 248.231, 77.500 240.147 C 77.500 234.841, 77.137 229.150, 76.693 227.500 L 75.886 224.500 77.408 227 C 78.244 228.375, 78.945 229.024, 78.965 228.441 C 78.984 227.859, 78.339 226.509, 77.532 225.441 C 76.724 224.374, 76.049 223.926, 76.032 224.446 C 76.014 224.967, 74.443 223.883, 72.539 222.038 C 70.635 220.193, 69.281 218.354, 69.530 217.951 C 69.779 217.548, 68.749 216.468, 67.241 215.550 L 64.500 213.881 66.861 215.941 C 69.404 218.159, 69.019 218.616, 65.978 216.988 C 62.635 215.199, 62.011 209.448, 62.006 180.375 C 62 150.454, 62.327 146.430, 64.882 145.064 C 67.231 143.808, 91.982 155.733, 89.942 157.138 C 88.887 157.865, 89.137 157.951, 90.875 157.458 C 92.478 157.005, 93.030 157.142, 92.573 157.881 C 92.159 158.551, 92.459 158.761, 93.344 158.422 C 95.209 157.706, 107.266 163.761, 106.486 165.022 C 106.162 165.547, 106.517 165.739, 107.276 165.448 C 109.045 164.769, 114.283 166.732, 113.610 167.822 C 113.329 168.276, 114.090 168.615, 115.300 168.574 C 116.519 168.533, 117.394 169.042, 117.262 169.714 C 117.130 170.389, 117.650 170.688, 118.434 170.387 C 120.163 169.723, 124.256 171.777, 123.534 172.945 C 122.680 174.326, 125.648 174.944, 127.025 173.672 C 128.024 172.750, 128.159 172.884, 127.659 174.302 C 127.247 175.468, 127.408 175.866, 128.114 175.429 C 129.598 174.512, 139.085 179.053, 138.309 180.309 C 137.936 180.912, 138.205 180.991, 138.987 180.508 C 140.486 179.582, 164.174 190.909, 163.391 192.177 C 163.119 192.617, 163.668 192.681, 164.612 192.319 C 165.868 191.836, 166.109 192.015, 165.510 192.985 C 164.962 193.871, 165.077 194.070, 165.859 193.587 C 167.406 192.631, 178.324 197.667, 177.521 198.966 C 177.142 199.579, 177.572 199.718, 178.612 199.319 C 179.637 198.926, 180.081 199.061, 179.714 199.654 C 179.374 200.204, 180.082 200.615, 181.300 200.574 C 182.519 200.533, 183.394 201.042, 183.262 201.714 C 183.115 202.463, 183.657 202.685, 184.676 202.294 C 185.844 201.846, 186.098 202.032, 185.543 202.930 C 184.910 203.955, 185.215 203.956, 187.129 202.936 C 189.301 201.779, 189.383 201.814, 188.109 203.359 C 186.881 204.847, 186.930 204.964, 188.523 204.353 C 189.757 203.879, 190.102 204.027, 189.612 204.819 C 189.166 205.540, 189.409 205.780, 190.253 205.456 C 192.453 204.612, 211.260 213.764, 210.370 215.246 C 209.927 215.983, 210.391 215.882, 211.495 215 C 213.194 213.644, 213.313 213.663, 212.738 215.199 C 212.262 216.472, 212.507 216.743, 213.715 216.279 C 214.782 215.870, 215.086 216.052, 214.612 216.819 C 214.165 217.542, 214.410 217.780, 215.266 217.451 C 217.165 216.723, 232.463 224.096, 230.969 225.019 C 230.321 225.419, 231.625 225.643, 233.866 225.517 C 236.107 225.391, 237.732 225.624, 237.477 226.037 C 237.222 226.449, 238.225 227.091, 239.705 227.462 C 241.477 227.907, 241.977 228.396, 241.171 228.894 C 240.498 229.310, 242.996 229.436, 246.723 229.174 C 250.451 228.912, 254.470 228.653, 255.655 228.599 C 256.839 228.544, 257.553 228.086, 257.240 227.580 C 256.926 227.071, 257.438 226.954, 258.388 227.319 C 259.544 227.762, 259.870 227.599, 259.388 226.819 C 258.905 226.038, 259.231 225.875, 260.388 226.319 C 261.544 226.762, 261.870 226.599, 261.388 225.819 C 260.905 225.038, 261.231 224.875, 262.388 225.319 C 263.544 225.762, 263.870 225.599, 263.388 224.819 C 262.893 224.018, 263.254 223.883, 264.555 224.383 C 265.591 224.780, 266.113 224.779, 265.713 224.380 C 264.693 223.360, 275.946 217.765, 277.680 218.431 C 278.463 218.731, 278.841 218.551, 278.519 218.031 C 277.740 216.770, 283.783 213.703, 285.642 214.416 C 286.446 214.725, 286.843 214.555, 286.524 214.039 C 285.744 212.777, 289.778 210.701, 291.630 211.412 C 292.576 211.775, 292.848 211.562, 292.388 210.819 C 291.905 210.038, 292.231 209.875, 293.388 210.319 C 294.544 210.762, 294.870 210.599, 294.388 209.819 C 293.911 209.047, 294.223 208.872, 295.324 209.294 C 296.270 209.657, 296.874 209.468, 296.738 208.853 C 296.607 208.261, 298.525 206.927, 301 205.887 C 304.694 204.335, 305.142 204.290, 303.500 205.633 C 301.736 207.076, 301.716 207.194, 303.332 206.635 C 304.339 206.286, 305.352 206, 305.582 206 C 305.812 206, 306 205.355, 306 204.567 C 306 202.885, 309.467 201.552, 311.146 202.590 C 311.856 203.029, 312.040 202.874, 311.617 202.190 C 310.751 200.789, 320.608 195.635, 322.653 196.420 C 323.579 196.776, 323.845 196.558, 323.388 195.819 C 322.905 195.038, 323.231 194.875, 324.388 195.319 C 325.499 195.745, 325.865 195.591, 325.427 194.881 C 324.979 194.157, 325.441 194.005, 326.791 194.434 C 327.913 194.790, 329.118 194.618, 329.468 194.052 C 329.854 193.427, 329.396 193.247, 328.302 193.593 C 326.741 194.087, 326.767 193.946, 328.500 192.537 C 329.600 191.643, 331.400 191.124, 332.500 191.385 C 333.600 191.646, 336.525 190.786, 339 189.475 C 341.475 188.163, 343.145 187.070, 342.710 187.045 C 342.276 187.020, 340.095 187.931, 337.863 189.070 C 335.632 190.208, 333.643 190.976, 333.443 190.776 C 333.243 190.576, 334.749 189.554, 336.789 188.506 C 338.830 187.457, 341.288 185.945, 342.250 185.145 C 343.212 184.345, 344 183.990, 344 184.356 C 344 184.723, 347.649 183.188, 352.108 180.946 C 356.568 178.703, 360.866 177.118, 361.660 177.423 C 362.580 177.776, 362.844 177.557, 362.388 176.819 C 361.905 176.038, 362.231 175.875, 363.388 176.319 C 364.544 176.762, 364.870 176.599, 364.388 175.819 C 363.905 175.038, 364.231 174.875, 365.388 175.319 C 366.357 175.691, 366.852 175.569, 366.524 175.039 C 365.744 173.777, 369.778 171.701, 371.630 172.412 C 372.576 172.775, 372.848 172.562, 372.388 171.819 C 371.905 171.038, 372.231 170.875, 373.388 171.319 C 374.544 171.762, 374.870 171.599, 374.388 170.819 C 373.905 170.038, 374.231 169.875, 375.388 170.319 C 376.332 170.681, 376.858 170.579, 376.558 170.093 C 375.929 169.076, 378.778 167.745, 379.985 168.491 C 380.428 168.765, 381.066 168.269, 381.404 167.391 C 381.764 166.450, 382.652 166.036, 383.560 166.385 C 384.567 166.771, 384.855 166.574, 384.388 165.819 C 383.907 165.040, 384.230 164.874, 385.374 165.313 C 386.443 165.724, 387.295 165.394, 387.667 164.426 C 387.992 163.578, 388.898 163.131, 389.681 163.431 C 390.464 163.731, 390.849 163.565, 390.537 163.061 C 389.803 161.872, 393.627 160.651, 395.146 161.590 C 395.870 162.038, 396.040 161.873, 395.594 161.153 C 394.754 159.793, 399.607 157.639, 401.238 158.647 C 401.834 159.015, 402.021 158.843, 401.660 158.259 C 401.303 157.682, 401.721 156.937, 402.588 156.605 C 404.787 155.761, 405.213 155.846, 404.507 156.989 C 404.157 157.555, 404.558 157.723, 405.448 157.382 C 406.302 157.054, 407 156.358, 407 155.834 C 407 155.310, 406.438 155.200, 405.750 155.588 C 404.778 156.136, 404.765 156.007, 405.691 155.006 C 406.345 154.298, 408.214 153.670, 409.842 153.609 C 411.471 153.549, 412.640 153.234, 412.440 152.908 C 411.820 151.897, 448.135 134.838, 449.661 135.424 C 450.580 135.776, 450.844 135.557, 450.388 134.819 C 449.905 134.038, 450.231 133.875, 451.388 134.319 C 452.544 134.762, 452.870 134.599, 452.388 133.819 C 451.905 133.038, 452.231 132.875, 453.388 133.319 C 454.544 133.762, 454.870 133.599, 454.388 132.819 C 453.905 132.038, 454.231 131.875, 455.388 132.319 C 456.544 132.762, 456.870 132.599, 456.388 131.819 C 455.905 131.038, 456.231 130.875, 457.388 131.319 C 458.337 131.683, 458.850 131.566, 458.536 131.058 C 457.801 129.870, 459.180 129.045, 462.339 128.784 C 463.723 128.669, 464.669 128.273, 464.441 127.904 C 463.779 126.834, 469.751 124.728, 471.094 125.558 C 471.924 126.071, 472.050 125.889, 471.490 124.985 C 470.891 124.015, 471.132 123.836, 472.388 124.319 C 473.332 124.681, 473.861 124.584, 473.565 124.105 C 473.268 123.625, 474.337 122.689, 475.940 122.025 C 477.544 121.361, 479.675 119.910, 480.678 118.801 C 482.458 116.831, 482.420 116.718, 479.038 113.892 C 477.134 112.302, 474.969 111, 474.229 111 C 473.488 111, 473.157 110.555, 473.493 110.011 C 473.856 109.424, 473.407 109.290, 472.388 109.681 C 471.231 110.125, 470.905 109.962, 471.388 109.181 C 471.870 108.401, 471.544 108.238, 470.388 108.681 C 469.132 109.164, 468.891 108.985, 469.490 108.015 C 470.035 107.134, 469.923 106.930, 469.155 107.405 C 468.520 107.797, 468 107.615, 468 107 C 468 106.385, 467.591 106.135, 467.090 106.444 C 465.971 107.136, 462.859 106.037, 463.410 105.145 C 463.629 104.790, 462.639 104.430, 461.209 104.344 C 459.780 104.258, 458.135 103.583, 457.555 102.844 C 456.975 102.105, 455.938 101.455, 455.250 101.400 C 454.563 101.345, 453.325 101.233, 452.500 101.150 C 451.675 101.067, 451 100.298, 451 99.441 C 451 98.584, 450.550 98.160, 450 98.500 C 449.450 98.840, 449 98.656, 449 98.090 C 449 97.525, 448.251 97.350, 447.336 97.701 C 446.353 98.079, 445.923 97.933, 446.286 97.346 C 446.626 96.796, 445.918 96.385, 444.700 96.426 C 443.481 96.467, 442.606 95.958, 442.738 95.286 C 442.870 94.615, 442.351 94.312, 441.578 94.608 C 440.810 94.903, 438.790 94.426, 437.090 93.547 C 435.391 92.668, 434 92.240, 434 92.597 C 434 92.953, 433.330 92.689, 432.511 92.009 C 431.692 91.329, 431.249 90.405, 431.527 89.956 C 431.805 89.506, 431.506 88.813, 430.862 88.415 C 430.131 87.963, 429.959 88.124, 430.405 88.845 C 431.334 90.350, 430.984 90.309, 426.372 88.381 C 424.242 87.491, 421.375 86.293, 420 85.720 C 418.625 85.146, 417.163 84.750, 416.750 84.839 C 416.337 84.927, 416 84.605, 416 84.123 C 416 82.802, 406.109 78.815, 404.816 79.614 C 404.170 80.013, 403.967 79.862, 404.340 79.259 C 405.119 77.999, 402.264 76.719, 400.755 77.651 C 400.170 78.013, 399.969 77.859, 400.309 77.309 C 400.649 76.758, 398.710 75.269, 396 74 C 393.154 72.667, 391.330 71.229, 391.683 70.596 C 392.114 69.822, 391.955 69.810, 391.140 70.557 C 389.809 71.776, 376.334 65.676, 376.738 64.038 C 376.869 63.506, 376.346 63.314, 375.575 63.610 C 373.837 64.277, 362.868 59.022, 363.584 57.865 C 363.870 57.402, 363.332 57.319, 362.388 57.681 C 361.231 58.125, 360.905 57.962, 361.388 57.181 C 361.870 56.401, 361.544 56.238, 360.388 56.681 C 359.231 57.125, 358.905 56.962, 359.388 56.181 C 359.847 55.438, 359.577 55.225, 358.633 55.587 C 356.899 56.253, 345.716 50.618, 346.739 49.594 C 347.124 49.209, 346.591 49.220, 345.555 49.617 C 344.254 50.117, 343.893 49.982, 344.388 49.181 C 344.870 48.401, 344.544 48.238, 343.388 48.681 C 342.132 49.164, 341.891 48.985, 342.490 48.015 C 343.061 47.092, 342.925 46.928, 342.041 47.475 C 340.553 48.394, 328.825 43.092, 329.594 41.848 C 329.874 41.394, 329.427 41.283, 328.600 41.600 C 326.444 42.427, 324.379 41.003, 326.143 39.906 C 327.034 39.352, 326.470 39.138, 324.500 39.281 C 322.806 39.405, 321.583 39.033, 321.691 38.427 C 321.796 37.837, 320.896 37.387, 319.691 37.427 C 318.480 37.467, 317.606 36.957, 317.738 36.286 C 317.873 35.597, 317.349 35.313, 316.526 35.628 C 314.722 36.321, 303.820 31.100, 304.562 29.899 C 304.860 29.417, 304.493 29.257, 303.747 29.544 C 303 29.830, 298.068 28.059, 292.786 25.608 C 287.504 23.156, 282.917 21.417, 282.591 21.742 C 282.266 22.067, 282 21.839, 282 21.234 C 282 20.629, 281.093 19.847, 279.985 19.495 C 278.877 19.144, 278.210 18.469, 278.502 17.997 C 278.794 17.525, 278.506 16.813, 277.862 16.415 C 277.095 15.941, 276.960 16.126, 277.471 16.953 C 278.522 18.654, 275.207 17.595, 267.710 13.835 C 264.526 12.238, 261.376 11.244, 260.710 11.626 C 260.045 12.008, 259.845 11.941, 260.266 11.478 C 260.687 11.014, 258.887 9.596, 256.266 8.327 C 250.729 5.645, 243.847 5.350, 239.667 7.615 M 203 22.500 C 201.625 23.286, 200.950 23.929, 201.500 23.929 C 202.050 23.929, 203.625 23.286, 205 22.500 C 206.375 21.714, 207.050 21.071, 206.500 21.071 C 205.950 21.071, 204.375 21.714, 203 22.500 M 297.441 26.445 C 298.509 27.300, 299.821 28, 300.358 28 C 301.628 28, 301.061 27.538, 298 26.080 C 295.643 24.958, 295.611 24.978, 297.441 26.445 M 226 60.086 C 228.053 60.813, 227.820 60.895, 224.692 60.539 C 220.472 60.060, 218 60.685, 218 62.229 C 218 62.788, 218.787 62.627, 219.750 61.872 C 221.334 60.630, 221.370 60.665, 220.137 62.239 C 219.387 63.195, 218.324 63.700, 217.775 63.361 C 215.343 61.858, 214.023 69.306, 216.050 73.094 C 216.628 74.173, 217.468 74.829, 217.917 74.552 C 218.365 74.274, 219.580 75.049, 220.616 76.274 L 222.500 78.500 220.250 76.595 C 219.012 75.547, 218 75.194, 218 75.809 C 218 76.858, 224.721 82, 226.092 82 C 226.438 82, 228.393 83.578, 230.438 85.507 C 234.818 89.637, 238.639 91.972, 237.547 89.850 C 237.164 89.107, 237.546 89.354, 238.394 90.397 C 239.242 91.441, 239.639 92.791, 239.276 93.397 C 238.913 94.004, 239.403 93.861, 240.364 93.081 C 241.874 91.855, 242.071 91.855, 241.806 93.081 C 241.626 93.914, 242.218 94.443, 243.239 94.363 C 244.196 94.288, 244.769 94.565, 244.513 94.979 C 244.257 95.394, 244.890 96.495, 245.920 97.427 C 247.152 98.543, 247.922 98.733, 248.172 97.984 C 248.392 97.324, 249.379 97.815, 250.526 99.156 C 252.495 101.460, 252.495 101.462, 250.500 99.983 C 248.648 98.610, 248.601 98.629, 249.872 100.250 C 250.627 101.213, 251.865 102, 252.622 102 C 253.380 102, 254 102.450, 254 103 C 254 103.550, 254.477 104, 255.059 104 C 255.641 104, 255.780 103.438, 255.367 102.750 C 254.851 101.890, 255.141 101.926, 256.297 102.863 C 257.222 103.613, 257.684 104.702, 257.325 105.283 C 256.908 105.958, 257.324 106.090, 258.477 105.647 C 259.959 105.078, 260.070 105.211, 259.093 106.388 C 258.205 107.458, 258.194 108.002, 259.047 108.529 C 260.232 109.262, 259.928 114.049, 258.482 117.414 C 257.839 118.911, 257.970 119.148, 259.080 118.504 C 259.909 118.023, 260.158 118.053, 259.679 118.577 C 259.228 119.071, 258.103 119.480, 257.179 119.487 C 256.256 119.494, 255.588 119.989, 255.695 120.586 C 255.803 121.184, 254.643 121.598, 253.112 121.507 C 251.486 121.410, 250.333 121.853, 250.333 122.575 C 250.333 123.272, 251.023 123.564, 251.917 123.245 C 252.787 122.935, 253.171 123.045, 252.768 123.490 C 252.365 123.934, 250.790 124.343, 249.268 124.399 C 247.746 124.454, 246.500 125.025, 246.500 125.667 C 246.500 126.308, 246.090 127.208, 245.590 127.667 C 245.061 128.151, 244.981 127.976, 245.399 127.250 C 246.365 125.571, 244.958 125.676, 241.174 127.563 C 237.547 129.372, 235.590 131.720, 238.586 130.667 C 240.467 130.007, 240.467 130.021, 238.582 131.481 C 237.233 132.525, 236.295 132.660, 235.421 131.934 C 234.249 130.961, 232.559 132.259, 232.515 134.167 C 232.507 134.533, 232.090 135.208, 231.590 135.667 C 231.069 136.143, 230.959 136.010, 231.333 135.356 C 231.753 134.622, 231.132 134.264, 229.599 134.356 C 227.913 134.458, 227.309 135.008, 227.544 136.229 C 227.727 137.180, 227.385 138.262, 226.784 138.633 C 226.089 139.063, 225.980 138.841, 226.485 138.025 C 227.014 137.169, 226.815 136.895, 225.889 137.204 C 225.125 137.458, 224.500 138.169, 224.500 138.783 C 224.500 139.397, 223.847 140.485, 223.048 141.200 C 221.795 142.322, 221.778 142.261, 222.921 140.750 C 223.869 139.497, 223.912 139, 223.071 139 C 222.426 139, 221.246 140.561, 220.449 142.468 C 218.738 146.563, 218.652 147.333, 220 146.500 C 220.550 146.160, 221 146.610, 221 147.500 C 221 148.390, 220.550 148.840, 220 148.500 C 218.846 147.787, 218.759 148.209, 219.607 150.418 C 219.941 151.288, 220.642 152, 221.166 152 C 221.690 152, 221.794 151.438, 221.399 150.750 C 220.981 150.024, 221.061 149.849, 221.590 150.333 C 222.090 150.792, 222.500 151.690, 222.500 152.329 C 222.500 152.968, 224.345 153.880, 226.600 154.356 C 230.052 155.084, 231.545 154.817, 236.037 152.667 C 238.972 151.262, 241.809 150.382, 242.341 150.711 C 242.874 151.040, 243.029 150.855, 242.686 150.301 C 242.343 149.746, 243.199 148.775, 244.588 148.142 C 245.977 147.509, 246.855 146.575, 246.540 146.065 C 246.225 145.555, 246.494 144.813, 247.138 144.415 C 247.905 143.941, 248.040 144.126, 247.529 144.953 C 246.376 146.818, 249.929 145.495, 256.292 141.689 C 259.224 139.935, 264.388 137.189, 267.769 135.586 C 271.150 133.984, 273.686 132.301, 273.406 131.848 C 273.126 131.394, 273.539 131.270, 274.324 131.571 C 276.014 132.219, 291.966 125.205, 295.780 122.135 C 297.240 120.961, 298.738 120, 299.110 120 C 299.482 120, 300.079 119.238, 300.436 118.306 C 300.996 116.847, 300.769 116.877, 298.793 118.530 C 297.532 119.584, 297.063 119.806, 297.750 119.023 C 298.438 118.241, 299.052 116.452, 299.116 115.050 C 299.193 113.355, 299.385 113.087, 299.689 114.250 C 299.941 115.213, 300.522 116, 300.980 116 C 302.580 116, 300.733 111.935, 298.242 109.976 C 295.411 107.749, 293.500 107.365, 294.633 109.250 C 295.130 110.077, 294.803 110.029, 293.668 109.107 C 292.724 108.342, 292.184 107.483, 292.467 107.200 C 293.135 106.532, 291.039 104, 289.819 104 C 289.303 104, 289.206 104.563, 289.601 105.250 C 290.019 105.976, 289.939 106.151, 289.410 105.667 C 288.910 105.208, 288.500 104.346, 288.500 103.750 C 288.500 103.154, 287.875 102.458, 287.111 102.204 C 286.150 101.883, 285.978 102.166, 286.553 103.120 C 287.256 104.288, 287.126 104.291, 285.703 103.137 C 284.778 102.387, 284.249 101.405, 284.527 100.956 C 284.805 100.506, 284.568 99.851, 284 99.500 C 283.432 99.149, 283.269 98.373, 283.638 97.776 C 284.007 97.179, 283.856 96.971, 283.302 97.313 C 282.748 97.656, 281.441 97.290, 280.397 96.500 C 277.767 94.508, 276.488 94.646, 278.079 96.750 C 279.222 98.261, 279.205 98.322, 277.952 97.200 C 277.153 96.485, 276.499 95.360, 276.497 94.700 C 276.496 94.040, 275.726 93.495, 274.786 93.488 C 273.846 93.482, 272.520 92.920, 271.838 92.238 C 271.157 91.557, 270.970 91, 271.422 91 C 271.875 91, 271.685 90.325, 271 89.500 C 269.244 87.384, 267.459 87.622, 269.128 89.750 C 270.370 91.334, 270.335 91.370, 268.761 90.137 C 267.805 89.387, 267.255 88.397, 267.539 87.937 C 267.823 87.477, 266.711 86.107, 265.067 84.891 C 263.423 83.676, 262.255 82.397, 262.470 82.049 C 262.685 81.700, 261.945 81.346, 260.825 81.262 C 258.830 81.111, 258.826 81.154, 260.644 83.304 L 262.500 85.500 260.274 83.616 C 259.049 82.580, 258.264 81.383, 258.528 80.955 C 258.793 80.527, 256.331 78.163, 253.057 75.702 C 249.784 73.241, 247.419 70.880, 247.803 70.454 C 248.186 70.028, 248.019 69.952, 247.432 70.286 C 246.845 70.620, 245.177 69.792, 243.726 68.446 C 241.018 65.935, 238.321 65.092, 239.595 67.155 C 240.041 67.876, 239.869 68.037, 239.138 67.585 C 238.494 67.187, 238.207 66.474, 238.500 65.999 C 238.794 65.525, 238.026 64.431, 236.794 63.568 C 234.101 61.682, 232.614 61.534, 233.601 63.250 C 234.019 63.976, 233.939 64.151, 233.410 63.667 C 232.910 63.208, 232.493 62.533, 232.485 62.167 C 232.439 60.156, 230.462 59.011, 227.191 59.100 C 223.791 59.191, 223.697 59.269, 226 60.086 M 259.600 107.674 C 260.205 108.128, 260.985 109.175, 261.332 110 C 261.777 111.054, 261.896 110.930, 261.732 109.583 C 261.605 108.528, 260.825 107.482, 260 107.257 C 259.035 106.994, 258.893 107.143, 259.600 107.674 M 46.448 177 C 46.448 195.425, 46.583 202.963, 46.748 193.750 C 46.913 184.537, 46.913 169.463, 46.748 160.250 C 46.583 151.037, 46.448 158.575, 46.448 177 M 64.459 147.067 C 64.096 147.653, 64.070 148.403, 64.400 148.733 C 64.730 149.063, 65 148.841, 65 148.240 C 65 147.639, 65.787 146.941, 66.750 146.689 C 68.328 146.277, 68.334 146.221, 66.809 146.116 C 65.879 146.052, 64.821 146.480, 64.459 147.067 M 75.083 150.365 C 75.313 150.565, 76.625 151.265, 78 151.920 C 80.357 153.042, 80.389 153.022, 78.559 151.555 C 76.966 150.279, 73.711 149.164, 75.083 150.365 M 114.588 190.137 C 115.136 191.031, 112.450 193.116, 111.707 192.373 C 111.372 192.038, 110.791 192.985, 110.416 194.477 C 110.042 195.969, 109.458 196.740, 109.118 196.191 C 108.439 195.093, 108.617 258.755, 109.312 266 C 109.630 269.309, 110.306 270.788, 111.866 271.589 C 113.033 272.188, 113.691 272.976, 113.327 273.339 C 112.700 273.967, 114.518 274.413, 116.355 274.083 C 116.826 273.999, 117.925 274.508, 118.797 275.215 C 120.008 276.196, 120.206 276.204, 119.633 275.250 C 119.081 274.331, 119.972 274, 123 274 C 125.784 274, 126.894 274.363, 126.426 275.120 C 125.922 275.935, 129.371 276.086, 139.117 275.676 C 147.943 275.304, 151.819 275.437, 150.500 276.067 C 148.994 276.786, 149.427 276.884, 152.250 276.465 C 154.409 276.145, 156 276.325, 156 276.888 C 156 277.427, 157.125 277.664, 158.500 277.414 C 159.875 277.165, 161 277.428, 161 277.999 C 161 278.624, 162.057 278.773, 163.649 278.373 C 165.392 277.936, 166.076 278.068, 165.648 278.761 C 165.242 279.417, 165.750 279.617, 166.999 279.290 C 168.099 279.002, 169 279.255, 169 279.852 C 169 280.449, 169.675 280.678, 170.500 280.362 C 171.325 280.045, 172 280.311, 172 280.952 C 172 281.593, 172.429 281.853, 172.954 281.528 C 173.479 281.204, 175.096 281.237, 176.549 281.602 C 178.553 282.105, 178.866 282.490, 177.845 283.198 C 176.934 283.830, 177.266 283.914, 178.875 283.458 C 180.189 283.086, 181.004 283.184, 180.700 283.676 C 180.397 284.166, 181.353 284.552, 182.825 284.534 C 184.400 284.514, 185.402 284.999, 185.262 285.714 C 185.131 286.382, 185.646 286.689, 186.406 286.398 C 188.176 285.719, 202.262 292.768, 201.523 293.963 C 201.217 294.457, 201.494 295.187, 202.138 295.585 C 202.923 296.070, 203.039 295.872, 202.490 294.985 C 201.888 294.010, 202.134 293.837, 203.418 294.330 C 204.378 294.699, 205.625 295, 206.189 295 C 206.753 295, 206.960 295.661, 206.651 296.468 C 206.341 297.275, 206.587 298.245, 207.198 298.622 C 207.911 299.063, 208.025 298.849, 207.515 298.025 C 206.983 297.163, 207.179 296.907, 208.111 297.245 C 208.875 297.523, 209.376 298.290, 209.225 298.949 C 209.074 299.609, 209.431 299.851, 210.019 299.488 C 211.358 298.660, 216.260 301.770, 215.516 302.975 C 215.214 303.463, 215.494 304.187, 216.138 304.585 C 216.912 305.063, 217.040 304.873, 216.515 304.025 C 215.983 303.163, 216.179 302.907, 217.111 303.245 C 217.875 303.523, 218.388 304.256, 218.250 304.875 C 218.113 305.494, 218.338 305.947, 218.750 305.882 C 220.735 305.568, 222.057 306.099, 221.507 306.989 C 221.144 307.576, 221.593 307.710, 222.612 307.319 C 223.910 306.821, 224.119 307.006, 223.472 308.080 C 222.785 309.219, 222.988 309.203, 224.500 308 C 225.536 307.175, 226.075 307.015, 225.698 307.645 C 224.957 308.882, 227.629 310.347, 229.038 309.477 C 229.510 309.185, 229.725 309.833, 229.516 310.916 C 229.251 312.293, 229.565 312.721, 230.560 312.339 C 231.343 312.038, 232.259 312.512, 232.596 313.391 C 232.934 314.269, 233.565 314.769, 234 314.500 C 234.435 314.231, 235.048 314.684, 235.364 315.506 C 235.679 316.328, 236.514 316.993, 237.219 316.985 C 238.115 316.974, 238.049 316.678, 237 316 C 234.862 314.618, 236.108 314.774, 241 316.500 C 243.338 317.325, 246.657 317.975, 248.376 317.944 C 252.566 317.868, 258.552 315.669, 258.284 314.304 C 258.161 313.675, 258.905 313.424, 260.023 313.716 C 261.122 314.004, 261.693 314.725, 261.328 315.364 C 260.958 316.013, 261.070 316.143, 261.590 315.667 C 262.090 315.208, 262.500 314.346, 262.500 313.750 C 262.500 313.154, 263.125 312.458, 263.889 312.204 C 264.815 311.895, 265.014 312.169, 264.485 313.025 C 263.960 313.873, 264.088 314.063, 264.862 313.585 C 265.506 313.187, 265.788 312.465, 265.488 311.981 C 264.832 310.919, 268.051 309.108, 269.600 309.668 C 270.205 309.887, 271.330 309.290, 272.100 308.341 C 273.301 306.862, 273.300 306.737, 272.095 307.463 C 271.113 308.054, 270.918 307.941, 271.447 307.086 C 271.862 306.414, 272.826 306.103, 273.589 306.396 C 274.352 306.689, 274.869 306.438, 274.738 305.839 C 274.607 305.240, 275.125 304.523, 275.889 304.245 C 276.855 303.894, 277.025 304.161, 276.447 305.120 C 275.751 306.275, 275.882 306.285, 277.249 305.177 C 278.146 304.449, 278.698 303.324, 278.474 302.677 C 278.251 302.030, 281.835 299.185, 286.440 296.357 C 292.749 292.481, 295.100 291.495, 295.978 292.357 C 296.856 293.218, 297.064 293.130, 296.821 292 C 296.609 291.009, 297.246 290.525, 298.700 290.574 C 299.910 290.615, 300.685 290.300, 300.422 289.874 C 299.718 288.735, 303.912 286.752, 305.630 287.412 C 306.576 287.775, 306.848 287.562, 306.388 286.819 C 305.905 286.038, 306.231 285.875, 307.388 286.319 C 308.407 286.710, 308.856 286.576, 308.493 285.989 C 308.157 285.445, 308.079 285, 308.319 285 C 308.559 285, 310.427 284.302, 312.469 283.449 C 314.511 282.595, 315.889 282.370, 315.532 282.949 C 315.174 283.527, 315.359 284, 315.941 284 C 316.523 284, 317 283.523, 317 282.941 C 317 282.359, 317.403 282.131, 317.895 282.435 C 318.388 282.740, 319.068 282.265, 319.408 281.380 C 319.825 280.294, 320.832 279.926, 322.512 280.247 C 323.881 280.509, 325 280.283, 325 279.745 C 325 279.207, 325.901 279.002, 327.001 279.290 C 328.250 279.617, 328.758 279.417, 328.352 278.761 C 327.922 278.065, 328.627 277.940, 330.435 278.394 C 332.032 278.795, 332.930 278.696, 332.595 278.154 C 332.281 277.645, 333.129 277.017, 334.481 276.759 C 335.833 276.500, 336.702 276.674, 336.411 277.144 C 336.120 277.615, 336.332 278, 336.882 278 C 337.432 278, 338.161 277.548, 338.502 276.996 C 338.843 276.444, 340.220 276.268, 341.561 276.605 C 343.173 277.009, 344 276.792, 344 275.966 C 344 275.040, 345.622 274.857, 350.250 275.263 C 354.500 275.635, 355.700 275.527, 354 274.924 C 351.769 274.132, 351.822 274.098, 354.500 274.607 C 356.150 274.921, 359.525 275.330, 362 275.517 C 366.176 275.833, 366.248 275.800, 363 275.060 C 359.615 274.290, 359.665 274.259, 364.500 274.147 C 368.173 274.062, 369.102 274.300, 368 275.045 C 366.951 275.754, 368.304 275.866, 372.500 275.418 C 375.800 275.065, 378.651 274.374, 378.835 273.882 C 379.020 273.390, 379.582 273.242, 380.085 273.553 C 380.588 273.864, 381 273.615, 381 273 C 381 272.385, 381.337 272.086, 381.750 272.336 C 382.163 272.586, 383.080 272.162, 383.789 271.395 C 384.499 270.628, 384.820 270, 384.504 270 C 384.188 270, 384.366 269.185, 384.899 268.188 C 385.454 267.152, 385.976 252.195, 386.120 233.244 C 386.280 212.192, 386.725 200.330, 387.340 200.710 C 387.873 201.040, 387.989 200.791, 387.598 200.158 C 387.207 199.525, 386.704 198.061, 386.481 196.904 C 385.719 192.943, 381.773 190.421, 375.914 190.149 C 372.936 190.010, 369.600 189.666, 368.500 189.383 C 367.189 189.046, 366.926 189.168, 367.737 189.735 C 369.409 190.907, 351.774 199.596, 349.978 198.486 C 349.151 197.975, 348.937 198.088, 349.378 198.803 C 349.776 199.447, 348.811 200.564, 347.082 201.457 C 343.591 203.263, 341.599 203.458, 342.562 201.900 C 343 201.191, 342.399 201.240, 340.871 202.036 C 337.550 203.766, 337.105 204.370, 339.750 203.557 C 343.159 202.509, 342.442 203.696, 338.550 205.543 C 336.653 206.444, 334.631 206.890, 334.058 206.536 C 333.485 206.182, 332.225 206.388, 331.258 206.994 C 329.787 207.916, 329.908 207.986, 332 207.424 C 333.375 207.054, 334.208 207.062, 333.850 207.442 C 332.093 209.310, 268.555 240.043, 267.381 239.593 C 266.635 239.306, 266.131 239.614, 266.262 240.277 C 266.395 240.949, 263.624 242.494, 260 243.767 C 255.029 245.514, 251.971 245.957, 247 245.650 C 240.325 245.239, 234.659 243.360, 235.583 241.865 C 235.870 241.402, 235.483 241.261, 234.724 241.552 C 232.550 242.387, 227.766 240.204, 228.587 238.752 C 229.135 237.781, 229.006 237.766, 228.012 238.685 C 226.635 239.957, 222.785 238.194, 220.250 235.129 C 219.563 234.298, 219 234.095, 219 234.679 C 219 235.262, 215.594 233.955, 211.430 231.773 C 207.267 229.591, 203.629 228.038, 203.346 228.321 C 202.682 228.984, 198.981 225.840, 199.478 225.036 C 199.684 224.702, 198.986 224.332, 197.927 224.214 C 196.867 224.096, 195.121 223.904, 194.048 223.786 C 192.974 223.668, 192.265 223.401, 192.473 223.194 C 192.843 222.824, 163.470 207.987, 161.500 207.549 C 158.127 206.798, 137.133 195.536, 138.050 194.969 C 138.793 194.510, 138.620 194.068, 137.532 193.651 C 136.576 193.284, 136.150 193.434, 136.507 194.011 C 137.274 195.252, 136.789 195.250, 133.505 194.002 C 131.902 193.393, 131.158 192.553, 131.594 191.847 C 132.040 191.127, 131.870 190.962, 131.146 191.410 C 130.506 191.806, 129.027 191.826, 127.859 191.455 C 126.678 191.081, 126.196 190.497, 126.773 190.141 C 127.343 189.788, 124.747 189.500, 121.003 189.500 C 117.260 189.500, 114.373 189.787, 114.588 190.137 M 193.083 207.373 C 194.112 208.294, 200 210.999, 200 210.551 C 200 209.975, 194.456 207, 193.383 207 C 192.989 207, 192.854 207.168, 193.083 207.373 M 64.195 210.500 C 64.215 212.150, 64.439 212.704, 64.693 211.731 C 64.947 210.758, 64.930 209.408, 64.656 208.731 C 64.382 208.054, 64.175 208.850, 64.195 210.500 M 73 220.500 C 74.292 221.875, 75.574 223, 75.849 223 C 76.124 223, 75.292 221.875, 74 220.500 C 72.708 219.125, 71.426 218, 71.151 218 C 70.876 218, 71.708 219.125, 73 220.500 M 191.083 220.365 C 191.313 220.565, 192.625 221.265, 194 221.920 C 196.357 223.042, 196.389 223.022, 194.559 221.555 C 192.966 220.279, 189.711 219.164, 191.083 220.365 M 205 227.500 C 206.375 228.286, 207.950 228.929, 208.500 228.929 C 209.050 228.929, 208.375 228.286, 207 227.500 C 205.625 226.714, 204.050 226.071, 203.500 226.071 C 202.950 226.071, 203.625 226.714, 205 227.500 M 80.272 240 C 80.272 242.475, 80.467 243.488, 80.706 242.250 C 80.944 241.012, 80.944 238.988, 80.706 237.750 C 80.467 236.512, 80.272 237.525, 80.272 240 M 246.750 244.706 C 247.988 244.944, 250.012 244.944, 251.250 244.706 C 252.488 244.467, 251.475 244.272, 249 244.272 C 246.525 244.272, 245.512 244.467, 246.750 244.706 M 79.252 279.500 C 79.263 281.700, 79.468 282.482, 79.707 281.238 C 79.946 279.994, 79.937 278.194, 79.687 277.238 C 79.437 276.282, 79.241 277.300, 79.252 279.500 M 27.195 297.500 C 27.215 299.150, 27.439 299.704, 27.693 298.731 C 27.947 297.758, 27.930 296.408, 27.656 295.731 C 27.382 295.054, 27.175 295.850, 27.195 297.500 M 127.750 308.723 C 129.537 308.945, 132.463 308.945, 134.250 308.723 C 136.037 308.502, 134.575 308.320, 131 308.320 C 127.425 308.320, 125.963 308.502, 127.750 308.723 M 363.768 308.725 C 365.565 308.947, 368.265 308.943, 369.768 308.715 C 371.271 308.486, 369.800 308.304, 366.500 308.310 C 363.200 308.315, 361.971 308.502, 363.768 308.725 M 114.500 310 C 115.898 310.601, 116.048 310.904, 115 311.006 C 114.175 311.087, 112.600 311.380, 111.500 311.657 C 110.400 311.935, 107.349 312.289, 104.721 312.443 C 102.092 312.598, 99.617 313.049, 99.221 313.446 C 98.539 314.127, 98.428 314.496, 98.125 317.059 C 98.056 317.641, 97.543 317.835, 96.984 317.490 C 96.425 317.144, 96.269 316.330, 96.638 315.681 C 97.007 315.031, 95.890 315.822, 94.155 317.437 C 91.020 320.356, 90.086 321.683, 92 320.500 C 92.550 320.160, 93 320.569, 93 321.410 C 93 322.308, 92.423 322.716, 91.601 322.400 C 90.832 322.105, 89.862 322.414, 89.447 323.086 C 88.936 323.912, 89.108 324.051, 89.975 323.515 C 90.831 322.986, 91.105 323.185, 90.796 324.111 C 90.542 324.875, 89.846 325.500, 89.250 325.500 C 88.654 325.500, 87.792 325.910, 87.333 326.410 C 86.849 326.939, 87.024 327.019, 87.750 326.601 C 89.694 325.482, 89.237 327.054, 85.951 332.784 C 84.284 335.691, 82.519 337.821, 82.029 337.518 C 81.539 337.215, 80.813 337.494, 80.415 338.138 C 79.963 338.869, 80.124 339.041, 80.845 338.595 C 82.280 337.709, 82.315 338.543, 80.950 341.094 C 80.372 342.173, 79.503 342.811, 79.019 342.512 C 78.535 342.212, 77.813 342.494, 77.415 343.138 C 76.977 343.846, 77.123 344.042, 77.785 343.633 C 78.449 343.223, 78.821 343.732, 78.731 344.927 C 78.624 346.342, 78.243 346.617, 77.380 345.900 C 76.576 345.233, 75.963 345.250, 75.530 345.951 C 75.174 346.528, 75.319 347, 75.852 347 C 76.386 347, 76.719 347.711, 76.591 348.580 C 76.333 350.337, 73.998 352.117, 72.867 351.418 C 72.466 351.170, 71.813 351.494, 71.415 352.138 C 70.963 352.869, 71.124 353.041, 71.845 352.595 C 72.480 352.203, 73 352.303, 73 352.819 C 73 354.081, 70.458 356.124, 69.758 355.425 C 69.451 355.118, 69.268 355.673, 69.350 356.659 C 69.433 357.645, 68.960 358.463, 68.300 358.476 C 67.640 358.489, 66.515 359.153, 65.800 359.952 C 64.678 361.205, 64.739 361.222, 66.250 360.079 C 67.213 359.351, 67.986 359.148, 67.968 359.628 C 67.919 360.977, 65.655 363.624, 64.116 364.132 C 63.011 364.497, 63.088 364.945, 64.501 366.358 C 66.504 368.361, 69.262 368.199, 78.244 365.554 C 81.403 364.623, 84.947 364.166, 86.119 364.538 C 87.554 364.993, 88.027 364.853, 87.566 364.107 C 87.190 363.498, 87.246 362.974, 87.691 362.942 C 88.136 362.910, 93.900 362.271, 100.500 361.523 C 118.971 359.428, 148.760 360.820, 163.500 364.467 C 164.600 364.739, 169.325 365.890, 174 367.024 C 184.972 369.686, 194.106 373.020, 193.429 374.115 C 193.136 374.589, 193.580 374.715, 194.416 374.394 C 195.943 373.808, 202.049 375.706, 209.500 379.084 C 211.700 380.081, 214.765 381.369, 216.310 381.946 C 217.856 382.524, 218.868 383.405, 218.559 383.905 C 218.250 384.405, 218.900 384.577, 220.004 384.289 C 221.108 384, 222.678 384.317, 223.493 384.994 C 224.308 385.670, 225.655 385.963, 226.487 385.643 C 227.319 385.324, 228 385.505, 228 386.046 C 228 386.587, 229.348 387.849, 230.996 388.852 C 232.644 389.854, 233.657 391.044, 233.246 391.497 C 232.836 391.950, 233.071 391.992, 233.769 391.589 C 234.468 391.187, 237.732 391.790, 241.023 392.929 C 248.570 395.541, 251.633 395.529, 258.775 392.862 C 261.924 391.686, 265.470 390.674, 266.655 390.612 C 267.839 390.550, 268.609 390.176, 268.364 389.780 C 267.685 388.681, 286.016 379.792, 287.661 380.424 C 288.471 380.734, 288.834 380.540, 288.488 379.980 C 287.385 378.196, 311.639 369.264, 314.552 370.382 C 315.405 370.709, 315.851 370.569, 315.543 370.069 C 314.845 368.940, 318.799 367.624, 331 364.923 C 346.478 361.496, 352.582 360.847, 371 360.669 C 388.177 360.503, 399.051 361.206, 406 362.931 C 407.925 363.408, 410.756 364.083, 412.291 364.429 C 414.010 364.817, 414.815 365.491, 414.386 366.184 C 413.950 366.891, 414.143 367.030, 414.906 366.558 C 415.574 366.145, 419.025 366.384, 422.574 367.090 C 427.627 368.094, 429.291 368.109, 430.239 367.161 C 431.187 366.213, 431.184 365.524, 430.225 363.989 C 428.502 361.230, 428.702 360.522, 430.750 362.128 C 432.334 363.370, 432.370 363.335, 431.137 361.761 C 430.387 360.805, 429.411 360.246, 428.967 360.520 C 428.524 360.794, 427.504 360.361, 426.700 359.557 C 425.896 358.753, 425.035 358.299, 424.786 358.548 C 424.537 358.796, 424.333 358.403, 424.333 357.672 C 424.333 356.942, 422.908 354.274, 421.167 351.742 C 417.766 346.800, 417.267 345.460, 419.250 346.601 C 419.976 347.019, 420.151 346.939, 419.667 346.410 C 419.208 345.910, 418.346 345.500, 417.750 345.500 C 417.154 345.500, 416.458 344.875, 416.204 344.111 C 415.895 343.185, 416.169 342.986, 417.025 343.515 C 417.873 344.040, 418.063 343.912, 417.585 343.138 C 417.187 342.494, 416.463 342.214, 415.975 342.516 C 414.672 343.321, 411.679 338.279, 412.379 336.456 C 412.708 335.598, 412.571 335.147, 412.074 335.454 C 410.877 336.194, 406.676 329.334, 407.504 327.993 C 407.859 327.420, 407.553 327.074, 406.824 327.225 C 406.096 327.376, 405.560 326.730, 405.632 325.789 C 405.705 324.848, 405.255 324.173, 404.632 324.289 C 404.010 324.405, 403.495 323.716, 403.489 322.759 C 403.484 321.801, 403.034 320.986, 402.489 320.948 C 400.913 320.838, 397.009 316.795, 397.583 315.866 C 397.869 315.402, 397.332 315.319, 396.388 315.681 C 395.132 316.164, 394.891 315.985, 395.490 315.015 C 396.005 314.182, 395.920 313.931, 395.261 314.339 C 394.685 314.695, 392.253 314.275, 389.856 313.406 C 382.582 310.767, 380.093 310.496, 364 310.593 C 353.516 310.656, 345.829 311.244, 340.247 312.409 C 335.708 313.357, 330.983 313.849, 329.747 313.501 C 328.067 313.028, 327.865 313.121, 328.948 313.866 C 330.099 314.658, 329.791 315.012, 327.448 315.589 C 325.827 315.989, 322.639 317.106, 320.365 318.073 C 317.199 319.419, 315.935 319.557, 314.968 318.665 C 313.987 317.759, 313.887 317.816, 314.517 318.920 C 315.118 319.972, 314.900 320.176, 313.676 319.706 C 312.657 319.315, 312.115 319.537, 312.262 320.286 C 312.394 320.958, 311.519 321.467, 310.300 321.426 C 309.082 321.385, 308.374 321.796, 308.714 322.346 C 309.081 322.939, 308.637 323.074, 307.612 322.681 C 306.643 322.309, 306.148 322.431, 306.476 322.961 C 306.795 323.477, 306.031 324.446, 304.778 325.114 C 302.625 326.261, 302.582 326.223, 304 324.414 C 305.395 322.634, 305.374 322.599, 303.704 323.910 C 302.717 324.686, 302.144 325.934, 302.432 326.683 C 302.851 327.775, 302.537 327.823, 300.857 326.923 C 299.703 326.306, 299.002 326.195, 299.300 326.677 C 299.599 327.159, 298.507 328.320, 296.874 329.257 C 295.242 330.194, 294.176 330.525, 294.505 329.992 C 294.845 329.441, 294.415 329.287, 293.509 329.635 C 292.632 329.972, 292.143 330.476, 292.423 330.756 C 293.279 331.612, 288.091 335.174, 286.985 334.491 C 286.416 334.139, 286.015 334.222, 286.094 334.676 C 286.445 336.700, 285.916 338.066, 285 337.500 C 284.450 337.160, 284 337.359, 284 337.941 C 284 338.523, 283.523 339, 282.941 339 C 282.359 339, 282.220 338.438, 282.633 337.750 C 283.130 336.923, 282.803 336.971, 281.668 337.893 C 280.724 338.658, 280.184 339.517, 280.467 339.800 C 281.154 340.487, 279.023 343, 277.755 343 C 277.205 343, 277.365 342.212, 278.110 341.250 C 279.238 339.794, 279.094 339.816, 277.256 341.384 C 276.041 342.420, 275.257 343.606, 275.513 344.020 C 276.172 345.088, 273.476 347.126, 271.855 346.785 C 271.011 346.607, 270.544 347.339, 270.618 348.727 C 270.683 349.952, 270.411 350.754, 270.015 350.509 C 269.619 350.264, 268.441 350.710, 267.397 351.500 C 265.095 353.243, 263.620 353.425, 264.595 351.845 C 265.041 351.124, 264.869 350.963, 264.138 351.415 C 263.494 351.813, 263.212 352.535, 263.512 353.019 C 264.311 354.313, 260.443 356.089, 258.322 355.402 C 256.942 354.955, 256.832 355.048, 257.870 355.789 C 260.117 357.393, 252.588 359.350, 247.131 358.580 C 244.584 358.220, 242.050 357.867, 241.500 357.795 C 240.950 357.722, 239.600 356.780, 238.500 355.702 C 236.505 353.746, 236.506 353.744, 239 354.926 C 241.328 356.029, 241.369 356.005, 239.603 354.587 C 238.559 353.749, 237.331 353.295, 236.873 353.578 C 235.681 354.315, 231.838 352.072, 232.488 351.019 C 232.788 350.535, 232.506 349.813, 231.862 349.415 C 231.172 348.988, 230.958 349.123, 231.340 349.741 C 231.697 350.318, 231.347 351.037, 230.563 351.338 C 229.572 351.718, 229.250 351.298, 229.507 349.963 C 229.711 348.907, 229.385 347.738, 228.784 347.367 C 228.129 346.962, 227.977 347.153, 228.405 347.845 C 229.703 349.946, 227.511 349.045, 223.719 345.920 C 221.663 344.225, 220.206 342.476, 220.480 342.033 C 220.754 341.589, 220.195 340.613, 219.239 339.863 C 217.665 338.630, 217.630 338.666, 218.872 340.250 C 219.843 341.488, 219.899 342, 219.063 342 C 218.414 342, 218.203 342.520, 218.595 343.155 C 219.051 343.892, 218.868 344.037, 218.088 343.554 C 217.416 343.139, 217.123 342.544, 217.436 342.231 C 217.748 341.918, 217.360 340.951, 216.573 340.081 C 215.786 339.212, 215.065 338.050, 214.971 337.500 C 214.877 336.950, 214.348 336.628, 213.795 336.785 C 212.464 337.162, 209.890 334.986, 210.500 334 C 210.763 333.574, 210.196 333.288, 209.239 333.363 C 208.283 333.438, 207.612 332.938, 207.750 332.250 C 207.887 331.563, 207.662 331.053, 207.250 331.118 C 205.153 331.449, 203.958 330.876, 204.595 329.845 C 205.037 329.131, 204.870 328.962, 204.156 329.403 C 202.772 330.259, 198.694 327.640, 199.756 326.577 C 200.165 326.168, 200.050 325.945, 199.500 326.081 C 197.486 326.579, 193 324.745, 193 323.423 C 193 322.565, 192.385 322.299, 191.336 322.701 C 190.128 323.165, 189.896 322.977, 190.490 322.015 C 191.047 321.116, 190.924 320.929, 190.108 321.434 C 189.447 321.842, 187.004 321.282, 184.679 320.189 C 171.079 313.796, 150.088 309.905, 130.189 310.089 C 122.868 310.156, 116.605 309.939, 116.272 309.606 C 115.939 309.273, 114.954 309.032, 114.083 309.070 C 112.919 309.122, 113.029 309.368, 114.500 310 M 100 314 C 98.707 314.835, 98.734 314.971, 100.191 314.985 C 101.121 314.993, 102.160 314.550, 102.500 314 C 103.282 312.734, 101.958 312.734, 100 314 M 94.020 318.476 C 93.231 319.426, 93.155 320, 93.819 320 C 95.027 320, 96.436 318.103, 95.743 317.409 C 95.491 317.158, 94.716 317.638, 94.020 318.476 M 103.269 362.693 C 104.242 362.947, 105.592 362.930, 106.269 362.656 C 106.946 362.382, 106.150 362.175, 104.500 362.195 C 102.850 362.215, 102.296 362.439, 103.269 362.693 M 135.250 362.689 C 136.213 362.941, 137.787 362.941, 138.750 362.689 C 139.713 362.438, 138.925 362.232, 137 362.232 C 135.075 362.232, 134.287 362.438, 135.250 362.689 M 357.269 362.693 C 358.242 362.947, 359.592 362.930, 360.269 362.656 C 360.946 362.382, 360.150 362.175, 358.500 362.195 C 356.850 362.215, 356.296 362.439, 357.269 362.693 M 389.269 362.693 C 390.242 362.947, 391.592 362.930, 392.269 362.656 C 392.946 362.382, 392.150 362.175, 390.500 362.195 C 388.850 362.215, 388.296 362.439, 389.269 362.693 M 249.269 396.693 C 250.242 396.947, 251.592 396.930, 252.269 396.656 C 252.946 396.382, 252.150 396.175, 250.500 396.195 C 248.850 396.215, 248.296 396.439, 249.269 396.693" stroke="none" fill="#e2e1da" fill-rule="evenodd"/></svg>