<?xml version="1.0" standalone="no"?>
<!DOCTYPE svg PUBLIC "-//W3C//DTD SVG 20010904//EN"
 "http://www.w3.org/TR/2001/REC-SVG-20010904/DTD/svg10.dtd">
<svg version="1.0" xmlns="http://www.w3.org/2000/svg"
 width="489.000000pt" height="401.000000pt" viewBox="0 0 489.000000 401.000000"
 preserveAspectRatio="xMidYMid meet">

<g transform="translate(0.000000,401.000000) scale(0.100000,-0.100000)"
fill="#000000" stroke="none">
<path d="M2285 3894 c-77 -37 -250 -117 -385 -179 -135 -62 -351 -162 -480
-222 -129 -61 -343 -160 -475 -221 -519 -240 -838 -392 -857 -408 -41 -38 -23
-54 174 -150 117 -58 190 -100 198 -113 8 -16 10 -125 8 -381 l-3 -360 -57
-53 c-68 -63 -90 -110 -91 -197 0 -74 16 -120 62 -172 17 -20 31 -42 31 -49 0
-8 -18 -50 -40 -94 -49 -100 -95 -246 -86 -280 13 -50 38 -56 243 -58 266 -3
282 8 269 195 -7 110 -26 167 -70 207 -33 31 -33 41 5 77 53 50 63 80 63 179
0 102 -20 155 -74 196 -18 13 -43 34 -56 46 l-24 22 2 333 c3 302 5 333 20
336 9 2 63 -20 120 -48 57 -29 168 -83 248 -120 80 -37 397 -190 705 -340 308
-149 593 -285 634 -302 108 -44 140 -38 326 52 83 40 193 93 245 117 52 25
250 122 440 215 307 152 546 266 1230 588 107 50 200 98 206 106 23 30 3 56
-70 89 -39 18 -147 70 -241 115 -179 87 -595 283 -830 393 -159 74 -274 128
-460 217 -71 34 -220 104 -330 155 -110 51 -238 111 -284 134 -120 58 -142 56
-316 -25z m20 -494 c32 -12 205 -140 395 -290 74 -59 172 -132 216 -163 144
-100 133 -116 -171 -254 -77 -35 -178 -85 -225 -112 -163 -94 -209 -114 -247
-108 -72 12 -95 70 -49 124 13 16 94 69 181 118 184 105 205 123 205 174 0 44
-12 56 -150 156 -172 124 -235 172 -269 204 -31 29 -33 35 -28 74 10 72 70
104 142 77z"/>
<path d="M1124 2087 l-38 -35 -9 -173 c-4 -96 -5 -256 -1 -357 5 -163 8 -185
27 -208 35 -45 73 -54 225 -54 166 0 272 -17 412 -65 140 -49 228 -95 449
-233 290 -182 300 -182 565 -5 236 159 363 220 569 274 63 17 125 23 272 28
200 7 218 11 254 57 20 26 21 38 21 368 0 320 -1 343 -20 373 -30 50 -62 66
-121 61 -41 -4 -149 -54 -565 -261 -282 -141 -540 -266 -573 -277 -76 -25
-136 -25 -210 0 -32 10 -244 111 -472 223 -551 272 -633 309 -695 315 -48 4
-55 2 -90 -31z"/>
<path d="M1152 909 c-95 -12 -159 -37 -201 -78 -21 -20 -71 -92 -111 -161 -41
-69 -102 -163 -137 -210 -97 -130 -78 -166 62 -120 109 36 226 50 431 50 402
0 654 -62 1089 -268 133 -63 143 -67 215 -67 74 0 77 1 250 86 264 130 431
189 635 224 219 38 571 35 720 -5 158 -43 182 -48 198 -38 28 15 19 44 -30
106 -27 33 -68 92 -93 131 -115 184 -177 267 -216 293 -91 60 -276 81 -481 54
-251 -33 -488 -139 -700 -314 -259 -213 -315 -214 -578 -1 -173 139 -360 240
-527 283 -161 42 -369 56 -526 35z"/>
</g>
</svg>
